<?xml version="1.0" standalone="no"?>
<!DOCTYPE svg PUBLIC "-//W3C//DTD SVG 20010904//EN"
 "http://www.w3.org/TR/2001/REC-SVG-20010904/DTD/svg10.dtd">
<svg version="1.0" xmlns="http://www.w3.org/2000/svg"
 width="826.000000pt" height="826.000000pt" viewBox="0 0 826.000000 826.000000"
 preserveAspectRatio="xMidYMid meet">

<g transform="translate(0.000000,826.000000) scale(0.100000,-0.100000)"
fill="#000000" stroke="none">
<path d="M2870 5727 l0 -254 -54 -12 c-60 -13 -122 -53 -155 -99 -49 -69 -51
-89 -51 -493 l0 -379 -125 0 c-68 0 -147 -5 -175 -11 -69 -15 -129 -62 -162
-128 l-28 -55 0 -744 c0 -561 3 -755 12 -786 7 -24 32 -60 58 -87 70 -73 102
-79 417 -79 l263 0 0 -160 0 -160 1260 0 1260 0 0 160 0 160 263 0 c315 0 347
6 417 79 26 27 51 63 58 87 9 31 12 225 12 786 l0 744 -27 55 c-34 66 -94 113
-163 128 -28 6 -107 11 -175 11 l-125 0 0 379 c0 404 -2 424 -51 493 -33 46
-95 86 -155 99 l-54 12 0 254 0 253 -1260 0 -1260 0 0 -253z m2430 -542 l0
-695 -1170 0 -1170 0 0 695 0 695 1170 0 1170 0 0 -695z m-2430 -255 l0 -441
-82 3 -83 3 -3 300 c-4 366 2 453 32 497 27 40 81 78 112 78 l24 0 0 -440z
m2601 417 c18 -12 44 -38 56 -56 23 -34 23 -38 23 -350 0 -174 3 -346 7 -383
l6 -68 -87 0 -86 0 0 440 0 440 24 0 c12 0 38 -10 57 -23z m499 -979 c18 -13
43 -36 54 -51 20 -27 21 -42 24 -353 l3 -324 -1921 0 -1921 0 3 324 c3 311 4
326 24 353 11 15 36 38 54 51 l33 22 1807 0 1807 0 33 -22z m80 -1183 c0 -389
-1 -395 -59 -450 l-32 -30 -155 -3 -154 -3 0 215 0 216 -1520 0 -1520 0 0
-215 0 -215 -144 0 c-132 0 -146 2 -176 23 -18 12 -43 35 -54 50 -20 27 -21
41 -24 398 l-3 369 1921 0 1920 0 0 -355z m-3180 -320 l0 -165 -85 0 -85 0 0
165 0 165 85 0 85 0 0 -165z m2430 -160 l0 -325 -1170 0 -1170 0 0 325 0 325
1170 0 1170 0 0 -325z m260 160 l0 -165 -85 0 -85 0 0 165 0 165 85 0 85 0 0
-165z"/>
<path d="M5200 4075 l0 -45 125 0 125 0 0 45 0 45 -125 0 -125 0 0 -45z"/>
<path d="M5600 4075 l0 -45 130 0 130 0 0 45 0 45 -130 0 -130 0 0 -45z"/>
<path d="M3180 2835 l0 -45 950 0 950 0 0 45 0 45 -950 0 -950 0 0 -45z"/>
<path d="M3180 2605 l0 -45 950 0 950 0 0 45 0 45 -950 0 -950 0 0 -45z"/>
</g>
</svg>
